<svg width="200" height="200" viewBox="0 0 200 200" xmlns="http://www.w3.org/2000/svg">
  <!-- Main face shape -->
  <path d="M60 60 Q40 60 40 80 Q30 100 30 110 Q30 120 40 140 Q40 160 60 160 Q80 170 100 160 Q120 170 140 160 Q160 160 160 140 Q170 120 170 110 Q170 100 160 80 Q160 60 140 60 Q120 50 100 60 Q80 50 60 60 Z" fill="#FFA500" stroke="none"/>
  
  <!-- Hair/eyebrow strokes on top -->
  <path d="M60 45 Q80 35 100 45" stroke="#2C2C2C" stroke-width="3" fill="none" stroke-linecap="round"/>
  <path d="M100 45 Q120 35 140 45" stroke="#2C2C2C" stroke-width="3" fill="none" stroke-linecap="round"/>
  
  <!-- Glasses frame -->
  <circle cx="75" cy="90" r="18" fill="none" stroke="#2C2C2C" stroke-width="2.5"/>
  <circle cx="125" cy="90" r="18" fill="none" stroke="#2C2C2C" stroke-width="2.5"/>
  
  <!-- Glasses bridge -->
  <line x1="93" y1="90" x2="107" y2="90" stroke="#2C2C2C" stroke-width="2.5"/>
  
  <!-- Eyes (pupils) -->
  <circle cx="75" cy="90" r="4" fill="#2C2C2C"/>
  <circle cx="125" cy="90" r="4" fill="#2C2C2C"/>
  
  <!-- Sad mouth -->
  <path d="M85 130 Q100 120 115 130" stroke="#2C2C2C" stroke-width="2.5" fill="none" stroke-linecap="round"/>
</svg>